# xmcd
#
# Track frame offsets: 
#        150
#        34324
#        49362
#        75511
#        96734
#        120840
#        139130
#        158200
#
# Disc length: 2330 seconds
#
# Revision: 1
# Processed by: cddbd v1.5.2PL0 Copyright (c) Steve Scherf et al.
# Submitted via: ExactAudioCopy v0.99pb5
#
DISCID=68091808
DTITLE=Various Artist - Soul Lounge 4 CD3
DYEAR=2007
DGENRE=Soul
TTITLE0=Incognito - The World Is Mine
TTITLE1=James Taylor Quintet - Got To Give It Up
TTITLE2=George Duke - T-Jam
TTITLE3=Full Flava feat. Kelli Sae - Music Is My Way Of Life
TTITLE4=Full Flava feat. Chantay Savage - Semptember
TTITLE5=Avani feat. Rahsaan Patterson and Carl McIntosh - Watching You
TTITLE6=Anthony David - Yes
TTITLE7=Isabel Fructoso - The Rhythm Is Magic (Instrumental Mix)
EXTD=
EXTT0=
EXTT1=
EXTT2=
EXTT3=
EXTT4=
EXTT5=
EXTT6=
EXTT7=
PLAYORDER=
